<?xml version="1.0" standalone="no"?>
<!DOCTYPE svg PUBLIC "-//W3C//DTD SVG 20010904//EN"
 "http://www.w3.org/TR/2001/REC-SVG-20010904/DTD/svg10.dtd">
<svg version="1.0" xmlns="http://www.w3.org/2000/svg"
 width="700.000000pt" height="700.000000pt" viewBox="0 0 700.000000 700.000000"
 preserveAspectRatio="xMidYMid meet">
<metadata>
Created by potrace 1.14, written by Peter Selinger 2001-2017
</metadata>
<g transform="translate(0.000000,700.000000) scale(0.100000,-0.100000)"
fill="#000000" stroke="none">
<path d="M1356 5263 c-8 -16 -29 -41 -46 -58 -48 -45 -163 -210 -214 -306 -57
-109 -93 -223 -76 -244 7 -8 20 -15 30 -15 9 0 38 -11 64 -25 56 -30 76 -31
76 -7 0 10 11 34 25 53 l26 34 -3 -67 -2 -67 115 -118 c64 -66 126 -141 142
-170 42 -78 75 -185 89 -282 6 -47 15 -90 19 -95 17 -19 108 204 134 329 11
50 17 125 17 200 -1 198 -39 309 -190 553 -43 70 -101 169 -128 219 -27 51
-52 93 -56 93 -4 0 -14 -12 -22 -27z m-119 -555 c-3 -8 -6 -5 -6 6 -1 11 2 17
5 13 3 -3 4 -12 1 -19z"/>
<path d="M1979 5016 c-72 -25 -193 -88 -235 -121 -35 -28 -34 -53 11 -165 39
-98 64 -211 65 -296 0 -68 -24 -204 -50 -278 -11 -33 -16 -64 -12 -68 20 -20
162 109 227 208 92 139 125 291 107 492 -7 70 -12 146 -12 170 0 42 -14 82
-28 82 -4 0 -37 -11 -73 -24z"/>
<path d="M606 4682 c-23 -39 -11 -317 20 -453 67 -297 283 -510 594 -588 98
-25 260 -39 260 -24 0 6 -35 25 -77 43 -176 73 -322 181 -439 323 -69 84 -87
117 -65 117 5 0 52 -42 104 -94 108 -106 251 -206 378 -265 95 -44 196 -78
205 -69 3 4 -10 46 -30 95 -19 48 -42 126 -51 173 -25 133 -36 170 -70 240
-97 194 -314 347 -595 421 -47 12 -118 37 -157 55 -40 18 -75 30 -77 26z"/>
<path d="M4891 3979 c-256 -45 -472 -228 -547 -462 -35 -111 -44 -278 -20
-392 70 -344 372 -560 755 -542 183 9 369 74 456 162 67 66 77 111 77 340 1
221 -6 244 -77 280 -36 18 -60 20 -248 20 l-208 0 7 53 c4 32 3 52 -4 52 -5 0
-66 -61 -136 -136 -97 -105 -124 -140 -115 -150 16 -19 274 -214 283 -214 5 0
6 29 3 64 -7 78 -6 79 110 70 l83 -7 0 -88 c0 -102 -1 -103 -106 -140 -167
-59 -342 -21 -455 98 -191 202 -140 544 100 672 130 69 244 63 414 -22 155
-78 214 -70 268 35 65 128 -46 243 -286 294 -87 19 -282 26 -354 13z"/>
<path d="M1743 3949 c-30 -15 -48 -33 -62 -63 -20 -41 -21 -58 -21 -592 0
-366 4 -562 11 -589 13 -49 32 -71 83 -97 46 -24 90 -20 142 12 61 38 68 64
69 253 l0 167 115 0 c63 0 120 -4 125 -8 6 -4 56 -65 110 -137 55 -71 125
-160 157 -196 91 -106 177 -135 245 -83 91 69 83 166 -23 284 -46 51 -122 141
-153 182 -11 15 -7 20 37 42 143 73 215 201 215 386 0 205 -99 362 -269 421
-89 31 -176 39 -464 39 -259 0 -278 -1 -317 -21z m597 -270 c153 -33 203 -214
87 -316 -52 -46 -91 -53 -284 -53 l-173 0 0 190 0 190 160 0 c87 0 182 -5 210
-11z"/>
<path d="M3143 3951 c-81 -37 -78 -12 -81 -649 -3 -541 -2 -564 17 -607 12
-27 33 -52 53 -65 32 -19 49 -20 461 -20 479 0 465 -2 506 70 28 50 27 67 -8
121 -49 78 -54 79 -410 79 l-311 0 0 140 0 140 270 0 c297 0 304 1 354 60 50
60 24 165 -49 196 -27 11 -92 14 -305 14 l-270 0 0 135 0 134 331 3 331 3 32
36 c46 50 54 98 24 151 -44 79 -39 78 -498 78 -376 0 -408 -2 -447 -19z"/>
</g>
</svg>
