<?xml version="1.0" encoding="UTF-8" standalone="no"?>
<!DOCTYPE svg PUBLIC "-//W3C//DTD SVG 1.1//EN" "http://www.w3.org/Graphics/SVG/1.1/DTD/svg11.dtd">
<svg xmlns="http://www.w3.org/2000/svg" version="1.1" viewBox="0.00 0.00 165.00 165.00">
	<path fill="#1e9146"
		d="
  M 28.77 53.55
  Q 28.82 53.73 28.92 53.89
  Q 29.28 54.53 28.69 54.97
  Q 28.11 55.39 28.04 56.11
  Q 27.94 57.33 27.00 56.55
  Q 25.96 55.70 24.79 55.55
  Q 23.75 55.42 24.00 54.41
  C 25.06 50.07 27.34 46.99 29.89 43.45
  C 30.57 42.50 31.82 41.85 32.10 40.85
  Q 32.37 39.91 32.81 40.78
  Q 35.13 45.38 37.84 49.48
  C 42.66 56.76 42.17 65.04 38.09 72.81
  Q 37.67 73.61 37.62 72.71
  Q 37.31 67.51 34.75 63.33
  C 33.30 60.97 31.20 59.83 29.50 57.77
  Q 29.14 57.33 29.19 56.76
  Q 29.32 55.25 29.28 53.70
  Q 29.28 53.47 29.08 53.36
  Q 29.02 53.33 28.96 53.32
  Q 28.68 53.28 28.77 53.55
  Z"
	/>
	<path fill="#69be58"
		d="
  M 40.79 51.98
  Q 40.51 51.44 40.49 50.83
  Q 40.47 50.10 41.08 49.69
  Q 44.70 47.29 48.15 46.36
  Q 48.82 46.18 48.84 46.87
  Q 48.93 49.49 49.27 52.40
  C 50.01 58.81 47.67 64.32 42.38 68.27
  Q 41.01 69.28 41.60 67.69
  Q 44.63 59.44 40.79 51.98
  Z"
	/>
	<path fill="#69be58"
		d="
  M 21.56 68.29
  A 0.31 0.31 0.0 0 0 21.13 68.24
  L 20.88 68.44
  Q 20.73 68.56 20.83 68.72
  Q 25.71 76.07 33.67 79.06
  Q 36.06 79.96 33.50 79.83
  C 24.28 79.36 16.44 74.14 14.67 64.67
  Q 13.82 60.11 14.18 55.03
  Q 14.23 54.37 14.80 54.71
  Q 16.88 55.95 19.38 56.53
  C 26.49 58.18 34.06 62.86 35.12 70.73
  Q 35.66 74.70 37.36 77.93
  Q 37.73 78.65 36.96 78.42
  Q 27.95 75.76 21.56 68.29
  Z"
	/>
	<path fill="#1e9146"
		d="
  M 119.99 85.39
  Q 125.03 84.96 129.45 85.43
  A 3.07 3.06 1.8 0 1 132.19 88.35
  Q 132.36 92.22 132.18 96.15
  C 132.07 98.53 130.80 100.49 128.68 101.59
  Q 121.09 105.55 113.49 103.43
  C 104.79 100.99 100.63 93.46 101.84 84.89
  Q 102.46 80.50 105.06 77.31
  Q 111.60 69.27 123.58 71.57
  C 127.21 72.26 133.24 74.77 129.69 79.42
  C 127.64 82.11 124.19 78.94 122.06 78.19
  Q 116.38 76.20 112.15 80.17
  Q 109.47 82.70 109.14 86.56
  C 108.38 95.57 117.22 100.40 124.78 96.08
  Q 125.25 95.81 125.25 95.26
  L 125.26 91.76
  Q 125.26 91.25 124.75 91.25
  L 120.94 91.24
  Q 120.37 91.24 120.42 91.81
  L 120.63 94.26
  Q 120.66 94.61 120.38 94.40
  L 113.97 89.57
  Q 113.60 89.30 113.91 88.97
  L 119.47 82.99
  Q 119.84 82.59 119.86 83.13
  Q 119.89 84.02 119.57 84.82
  Q 119.33 85.44 119.99 85.39
  Z"
	/>
	<path fill="#1e9146"
		d="
  M 59.74 92.33
  Q 61.32 94.43 63.28 96.50
  C 65.49 98.82 66.85 101.83 63.21 103.80
  Q 62.75 104.05 62.24 103.94
  Q 60.09 103.47 58.67 101.77
  Q 55.55 98.04 52.37 93.70
  Q 52.05 93.26 51.50 93.25
  L 46.68 93.23
  Q 46.09 93.23 46.14 93.82
  Q 46.43 97.61 46.15 100.77
  Q 45.95 103.04 43.11 103.86
  Q 42.78 103.95 42.48 103.87
  Q 39.33 103.08 39.30 100.28
  Q 39.19 87.91 39.27 74.88
  A 3.36 3.36 0.0 0 1 42.58 71.54
  Q 47.66 71.45 53.60 71.53
  C 58.46 71.59 62.78 72.64 64.87 77.50
  C 67.00 82.45 65.70 89.69 59.97 91.61
  Q 59.35 91.81 59.74 92.33
  Z
  M 46.26 78.26
  L 46.24 86.72
  A 0.26 0.26 0.0 0 0 46.49 86.98
  L 54.06 87.01
  A 4.69 4.15 0.2 0 0 58.77 82.87
  L 58.77 82.19
  A 4.69 4.15 0.2 0 0 54.10 78.03
  L 46.53 78.00
  A 0.26 0.26 0.0 0 0 46.26 78.26
  Z"
	/>
	<path fill="#1e9146"
		d="
  M 79.50 77.74
  Q 79.25 77.74 79.25 78.00
  L 79.25 84.00
  Q 79.25 84.26 79.51 84.26
  L 91.33 84.24
  Q 94.53 84.24 94.77 87.43
  Q 94.87 88.65 93.11 89.97
  A 2.74 2.69 26.1 0 1 91.48 90.51
  L 79.51 90.48
  Q 79.25 90.48 79.25 90.74
  L 79.25 97.00
  A 0.28 0.27 90.0 0 0 79.52 97.28
  Q 85.43 97.23 93.58 97.25
  Q 95.76 97.26 96.87 99.96
  Q 97.12 100.56 96.90 101.14
  Q 96.02 103.50 93.51 103.50
  L 75.75 103.50
  A 3.50 3.50 0.0 0 1 72.25 100.00
  L 72.25 75.54
  Q 72.25 71.46 76.33 71.49
  Q 85.10 71.53 93.16 71.48
  Q 95.62 71.46 96.62 73.86
  Q 96.82 74.35 96.70 74.94
  Q 96.12 77.76 93.24 77.75
  L 79.50 77.74
  Z"
	/>
</svg>