<?xml version="1.0" standalone="no"?>
<!DOCTYPE svg PUBLIC "-//W3C//DTD SVG 20010904//EN"
 "http://www.w3.org/TR/2001/REC-SVG-20010904/DTD/svg10.dtd">
<svg version="1.0" xmlns="http://www.w3.org/2000/svg"
 width="608.000000pt" height="430.000000pt" viewBox="0 0 608.000000 430.000000"
 preserveAspectRatio="xMidYMid meet">

  <g transform="translate(0.000000,430.000000) scale(0.100000,-0.100000)"
    fill="#e6f5ea" stroke="none">
<path d="M1342 3602 c-83 -97 -154 -204 -208 -315 -53 -109 -55 -144 -9 -166
17 -7 43 -20 58 -27 16 -8 32 -14 37 -14 4 0 13 26 19 58 23 117 51 106 51
-21 l0 -77 103 -103 c76 -76 111 -119 135 -167 38 -77 62 -167 62 -230 0 -25
4 -51 9 -58 18 -29 75 100 112 252 18 76 20 109 16 215 -6 177 -44 282 -172
476 -33 50 -81 125 -106 169 l-46 78 -61 -70z"/>
<path d="M4509 2516 c-115 -25 -213 -79 -304 -171 -93 -92 -134 -163 -164
-282 -73 -285 54 -579 303 -702 209 -104 468 -93 694 28 116 63 132 104 132
339 0 123 -4 154 -19 189 -34 74 -49 78 -263 78 l-187 0 -7 40 -7 40 -108
-114 -108 -114 37 -28 c66 -50 197 -145 209 -152 9 -6 11 8 10 50 l-2 58 95 0
95 0 3 -86 c3 -98 1 -101 -88 -139 -46 -20 -73 -24 -160 -24 -93 -1 -111 2
-161 26 -139 64 -219 195 -219 358 0 152 80 285 213 352 58 29 64 30 166 26
90 -4 114 -8 156 -30 165 -86 149 -81 194 -67 64 19 86 50 86 119 0 50 -4 63
-28 87 -34 36 -135 87 -213 108 -83 23 -272 28 -355 11z"/>
<path d="M1719 2487 c-19 -13 -39 -38 -46 -57 -15 -45 -18 -987 -3 -1041 17
-59 52 -84 120 -84 44 0 63 5 80 20 42 37 50 75 50 230 l0 145 109 0 108 0
104 -132 c165 -213 196 -246 239 -259 107 -32 198 56 157 152 -8 19 -60 90
-116 157 l-102 124 58 35 c73 43 97 66 129 120 37 65 54 129 54 214 0 201
-104 332 -305 384 -46 12 -119 15 -331 15 -266 0 -272 0 -305 -23z m592 -235
c59 -29 89 -80 89 -151 0 -60 -17 -98 -59 -134 -43 -36 -110 -47 -276 -47
l-145 0 0 181 0 180 173 -3 c154 -3 177 -5 218 -26z"/>
<path d="M2973 2489 c-62 -40 -63 -47 -63 -585 0 -539 -1 -533 65 -574 31 -19
49 -20 406 -20 398 0 397 0 437 48 22 28 15 107 -12 139 l-24 28 -304 5 -303
5 -3 133 -3 132 249 0 c242 0 250 1 282 23 59 39 64 121 9 173 l-30 29 -255 3
-254 3 0 124 0 124 295 3 295 3 32 33 c28 27 33 40 33 78 0 40 -5 50 -37 80
l-38 34 -372 0 c-357 0 -374 -1 -405 -21z"/>
</g>
</svg>
